<svg style="display: none">

<symbol id="map-city"  viewBox="0 0 24 24" fill="none" xmlns="http://www.w3.org/2000/svg">
<path d="M5 9.92285C5 14.7747 9.24448 18.7869 11.1232 20.3252C11.3921 20.5454 11.5281 20.6568 11.7287 20.7132C11.8849 20.7572 12.1148 20.7572 12.271 20.7132C12.472 20.6567 12.6071 20.5463 12.877 20.3254C14.7557 18.7871 18.9999 14.7751 18.9999 9.9233C18.9999 8.08718 18.2625 6.32605 16.9497 5.02772C15.637 3.72939 13.8566 3 12.0001 3C10.1436 3 8.36301 3.7295 7.05025 5.02783C5.7375 6.32616 5 8.08674 5 9.92285Z" stroke="black" stroke-linecap="round" stroke-linejoin="round"/>
<path d="M10 9C10 10.1046 10.8954 11 12 11C13.1046 11 14 10.1046 14 9C14 7.89543 13.1046 7 12 7C10.8954 7 10 7.89543 10 9Z" stroke="black" stroke-linecap="round" stroke-linejoin="round"/>
</symbol>

<symbol id="list-btn"  viewBox="0 0 24 24" fill="none" xmlns="http://www.w3.org/2000/svg">
<path d="M4 18H14M4 14H20M4 10H14M4 6H20" stroke="white" stroke-linecap="round" stroke-linejoin="round"/>
</symbol>

<symbol id="left-btn" viewBox="0 0 9 16" fill="none" xmlns="http://www.w3.org/2000/svg">
<path d="M8.26318 1.26318L1.26318 8.26318L8.26318 15.2632" stroke="white" stroke-linecap="round" stroke-linejoin="round"/>
</symbol>

<symbol id="right-btn"  viewBox="0 0 9 16" fill="none" xmlns="http://www.w3.org/2000/svg">
<path d="M0.736816 1.26318L7.73682 8.26318L0.736816 15.2632" stroke="white" stroke-linecap="round" stroke-linejoin="round"/>
</symbol>

<symbol id="like-btn"  viewBox="0 0 18 17" fill="none" xmlns="http://www.w3.org/2000/svg">
<path d="M16.2373 2.23731C17.7839 3.78395 17.8432 6.27268 16.3718 7.89114L8.99949 16.0001L1.62812 7.89111C0.156794 6.27265 0.216048 3.7839 1.76269 2.23726C3.48961 0.510338 6.33372 0.66814 7.85937 2.5752L9 4.00045L10.1396 2.57504C11.6653 0.667978 14.5104 0.510393 16.2373 2.23731Z" stroke="black" stroke-linecap="round" stroke-linejoin="round"/>
</symbol>

<symbol id="login-profile" width="28" height="34" viewBox="0 0 28 34" fill="none" xmlns="http://www.w3.org/2000/svg">
<path d="M26.8334 33.5C26.8334 26.4123 21.0877 20.6667 14 20.6667C6.91236 20.6667 1.16669 26.4123 1.16669 33.5M14 15.1667C9.94993 15.1667 6.66669 11.8834 6.66669 7.83333C6.66669 3.78325 9.94993 0.5 14 0.5C18.0501 0.5 21.3334 3.78325 21.3334 7.83333C21.3334 11.8834 18.0501 15.1667 14 15.1667Z" stroke="black" stroke-linecap="round" stroke-linejoin="round"/>
</symbol>

<symbol  id="message" viewBox="0 0 18 21" fill="none" xmlns="http://www.w3.org/2000/svg">
<path d="M2 2L8.10764 6.61227L8.10967 6.61396C8.78785 7.11128 9.12714 7.3601 9.49876 7.45621C9.82723 7.54117 10.1725 7.54117 10.501 7.45621C10.8729 7.36001 11.2132 7.11047 11.8926 6.61227C11.8926 6.61227 15.8101 3.60594 18 2M1 11.8002V4.2002C1 3.08009 1 2.51962 1.21799 2.0918C1.40973 1.71547 1.71547 1.40973 2.0918 1.21799C2.51962 1 3.08009 1 4.2002 1H15.8002C16.9203 1 17.4796 1 17.9074 1.21799C18.2837 1.40973 18.5905 1.71547 18.7822 2.0918C19 2.5192 19 3.07899 19 4.19691V11.8036C19 12.9215 19 13.4805 18.7822 13.9079C18.5905 14.2842 18.2837 14.5905 17.9074 14.7822C17.48 15 16.921 15 15.8031 15H4.19691C3.07899 15 2.5192 15 2.0918 14.7822C1.71547 14.5905 1.40973 14.2842 1.21799 13.9079C1 13.4801 1 12.9203 1 11.8002Z" stroke="black" stroke-linecap="round" stroke-linejoin="round"/>
</symbol>

<symbol id="cart" viewBox="0 0 22 22"  fill="none" xmlns="http://www.w3.org/2000/svg">
<path d="M8 8H6.77734C5.47772 8 4.82845 8 4.36621 8.26514C3.96058 8.49781 3.64877 8.86535 3.48595 9.30371C3.30053 9.80294 3.40726 10.4433 3.62065 11.7237L3.62109 11.7261L4.55443 17.3261C4.71276 18.276 4.79244 18.7512 5.02947 19.1077C5.23841 19.4219 5.5317 19.6703 5.87598 19.8247C6.26653 19.9999 6.74787 20 7.71094 20H16.2893C17.2524 20 17.7334 19.9999 18.124 19.8247C18.4682 19.6703 18.7618 19.4219 18.9707 19.1077C19.2077 18.7512 19.287 18.276 19.4453 17.3261L20.3786 11.7261L20.3796 11.7222C20.5928 10.4428 20.6995 9.80274 20.5141 9.30371C20.3513 8.86535 20.0402 8.49781 19.6346 8.26514C19.1724 8 18.522 8 17.2224 8H16M8 8H16M8 8C8 5.79086 9.79086 4 12 4C14.2091 4 16 5.79086 16 8" stroke="black" stroke-linecap="round" stroke-linejoin="round"/>
</symbol>

<symbol id="alerts"  viewBox="0 0 18 20" fill="none" xmlns="http://www.w3.org/2000/svg">
<path d="M12 15V16C12 17.6569 10.6569 19 9 19C7.34315 19 6 17.6569 6 16V15M12 15H6M12 15H15.5905C15.973 15 16.1652 15 16.3201 14.9478C16.616 14.848 16.8475 14.6156 16.9473 14.3198C16.9997 14.1643 16.9997 13.9715 16.9997 13.5859C16.9997 13.4172 16.9995 13.3329 16.9863 13.2524C16.9614 13.1004 16.9024 12.9563 16.8126 12.8312C16.7651 12.7651 16.7048 12.7048 16.5858 12.5858L16.1963 12.1963C16.0706 12.0706 16 11.9001 16 11.7224V8C16 4.134 12.866 0.999991 9 1C5.13401 1.00001 2 4.13401 2 8V11.7224C2 11.9002 1.92924 12.0706 1.80357 12.1963L1.41406 12.5858C1.29476 12.7051 1.23504 12.765 1.1875 12.8312C1.09766 12.9564 1.03815 13.1004 1.0132 13.2524C1 13.3329 1 13.4172 1 13.586C1 13.9715 1 14.1642 1.05245 14.3197C1.15225 14.6156 1.3848 14.848 1.68066 14.9478C1.83556 15 2.02701 15 2.40956 15H6" stroke="black" stroke-linecap="round" stroke-linejoin="round"/>
</symbol>

<symbol id="like"  viewBox="0 0 18 20" fill="none" xmlns="http://www.w3.org/2000/svg">
<path d="M16.2373 2.23731C17.7839 3.78395 17.8432 6.27268 16.3718 7.89114L8.99949 16.0001L1.62812 7.89111C0.156794 6.27265 0.216048 3.7839 1.76269 2.23726C3.48961 0.510338 6.33372 0.66814 7.85937 2.5752L9 4.00045L10.1396 2.57504C11.6653 0.667978 14.5104 0.510393 16.2373 2.23731Z" stroke="black" stroke-linecap="round" stroke-linejoin="round"/>
</symbol>
</svg>