<svg style="display: none">

<symbol id="map-city"  viewBox="0 0 24 24" fill="none" xmlns="http://www.w3.org/2000/svg">
<path d="M5 9.92285C5 14.7747 9.24448 18.7869 11.1232 20.3252C11.3921 20.5454 11.5281 20.6568 11.7287 20.7132C11.8849 20.7572 12.1148 20.7572 12.271 20.7132C12.472 20.6567 12.6071 20.5463 12.877 20.3254C14.7557 18.7871 18.9999 14.7751 18.9999 9.9233C18.9999 8.08718 18.2625 6.32605 16.9497 5.02772C15.637 3.72939 13.8566 3 12.0001 3C10.1436 3 8.36301 3.7295 7.05025 5.02783C5.7375 6.32616 5 8.08674 5 9.92285Z" stroke="black" stroke-linecap="round" stroke-linejoin="round"/>
<path d="M10 9C10 10.1046 10.8954 11 12 11C13.1046 11 14 10.1046 14 9C14 7.89543 13.1046 7 12 7C10.8954 7 10 7.89543 10 9Z" stroke="black" stroke-linecap="round" stroke-linejoin="round"/>
</symbol>

<symbol id="list-btn"  viewBox="0 0 24 24" fill="none" xmlns="http://www.w3.org/2000/svg">
<path d="M4 18H14M4 14H20M4 10H14M4 6H20" stroke="white" stroke-linecap="round" stroke-linejoin="round"/>
</symbol>

<symbol id="left-btn" viewBox="0 0 9 16" fill="none" xmlns="http://www.w3.org/2000/svg">
<path d="M8.26318 1.26318L1.26318 8.26318L8.26318 15.2632" stroke="white" stroke-linecap="round" stroke-linejoin="round"/>
</symbol>

<symbol id="right-btn"  viewBox="0 0 9 16" fill="none" xmlns="http://www.w3.org/2000/svg">
<path d="M0.736816 1.26318L7.73682 8.26318L0.736816 15.2632" stroke="white" stroke-linecap="round" stroke-linejoin="round"/>
</symbol>

<symbol id="like-btn"  viewBox="0 0 18 17" fill="none" xmlns="http://www.w3.org/2000/svg">
<path d="M16.2373 2.23731C17.7839 3.78395 17.8432 6.27268 16.3718 7.89114L8.99949 16.0001L1.62812 7.89111C0.156794 6.27265 0.216048 3.7839 1.76269 2.23726C3.48961 0.510338 6.33372 0.66814 7.85937 2.5752L9 4.00045L10.1396 2.57504C11.6653 0.667978 14.5104 0.510393 16.2373 2.23731Z" stroke="black" stroke-linecap="round" stroke-linejoin="round"/>
</symbol>

<symbol id="login-profile" width="24" height="24" fill="none" xmlns="http://www.w3.org/2000/svg">
<path d="M19 21C19 17.134 15.866 14 12 14C8.13401 14 5 17.134 5 21M12 11C9.79086 11 8 9.20914 8 7C8 4.79086 9.79086 3 12 3C14.2091 3 16 4.79086 16 7C16 9.20914 14.2091 11 12 11Z" stroke="black" stroke-linecap="round" stroke-linejoin="round"/>
</symbol>

<symbol  id="message" viewBox="0 0 18 21" fill="none" xmlns="http://www.w3.org/2000/svg">
<path d="M2 2L8.10764 6.61227L8.10967 6.61396C8.78785 7.11128 9.12714 7.3601 9.49876 7.45621C9.82723 7.54117 10.1725 7.54117 10.501 7.45621C10.8729 7.36001 11.2132 7.11047 11.8926 6.61227C11.8926 6.61227 15.8101 3.60594 18 2M1 11.8002V4.2002C1 3.08009 1 2.51962 1.21799 2.0918C1.40973 1.71547 1.71547 1.40973 2.0918 1.21799C2.51962 1 3.08009 1 4.2002 1H15.8002C16.9203 1 17.4796 1 17.9074 1.21799C18.2837 1.40973 18.5905 1.71547 18.7822 2.0918C19 2.5192 19 3.07899 19 4.19691V11.8036C19 12.9215 19 13.4805 18.7822 13.9079C18.5905 14.2842 18.2837 14.5905 17.9074 14.7822C17.48 15 16.921 15 15.8031 15H4.19691C3.07899 15 2.5192 15 2.0918 14.7822C1.71547 14.5905 1.40973 14.2842 1.21799 13.9079C1 13.4801 1 12.9203 1 11.8002Z" stroke="black" stroke-linecap="round" stroke-linejoin="round"/>
</symbol>

<symbol id="cart"   fill="none" xmlns="http://www.w3.org/2000/svg">
<path d="M8.5 8H7.27734C5.97772 8 5.32845 8 4.86621 8.26514C4.46058 8.49781 4.14877 8.86535 3.98595 9.30371C3.80053 9.80294 3.90726 10.4433 4.12065 11.7237L4.12109 11.7261L5.05443 17.3261C5.21276 18.276 5.29244 18.7512 5.52947 19.1077C5.73841 19.4219 6.0317 19.6703 6.37598 19.8247C6.76653 19.9999 7.24787 20 8.21094 20H16.7893C17.7524 20 18.2334 19.9999 18.624 19.8247C18.9682 19.6703 19.2618 19.4219 19.4707 19.1077C19.7077 18.7512 19.787 18.276 19.9453 17.3261L20.8786 11.7261L20.8796 11.7222C21.0928 10.4428 21.1995 9.80274 21.0141 9.30371C20.8513 8.86535 20.5402 8.49781 20.1346 8.26514C19.6724 8 19.022 8 17.7224 8H16.5M8.5 8H16.5M8.5 8C8.5 5.79086 10.2909 4 12.5 4C14.7091 4 16.5 5.79086 16.5 8" stroke="black" stroke-linecap="round" stroke-linejoin="round"/>
</symbol>

<symbol id="alerts"  viewBox="0 0 18 20" fill="none" xmlns="http://www.w3.org/2000/svg">
<path d="M12 15V16C12 17.6569 10.6569 19 9 19C7.34315 19 6 17.6569 6 16V15M12 15H6M12 15H15.5905C15.973 15 16.1652 15 16.3201 14.9478C16.616 14.848 16.8475 14.6156 16.9473 14.3198C16.9997 14.1643 16.9997 13.9715 16.9997 13.5859C16.9997 13.4172 16.9995 13.3329 16.9863 13.2524C16.9614 13.1004 16.9024 12.9563 16.8126 12.8312C16.7651 12.7651 16.7048 12.7048 16.5858 12.5858L16.1963 12.1963C16.0706 12.0706 16 11.9001 16 11.7224V8C16 4.134 12.866 0.999991 9 1C5.13401 1.00001 2 4.13401 2 8V11.7224C2 11.9002 1.92924 12.0706 1.80357 12.1963L1.41406 12.5858C1.29476 12.7051 1.23504 12.765 1.1875 12.8312C1.09766 12.9564 1.03815 13.1004 1.0132 13.2524C1 13.3329 1 13.4172 1 13.586C1 13.9715 1 14.1642 1.05245 14.3197C1.15225 14.6156 1.3848 14.848 1.68066 14.9478C1.83556 15 2.02701 15 2.40956 15H6" stroke="black" stroke-linecap="round" stroke-linejoin="round"/>
</symbol>

<symbol id="like"  viewBox="0 0 18 20" fill="none" xmlns="http://www.w3.org/2000/svg">
<path d="M16.2373 2.23731C17.7839 3.78395 17.8432 6.27268 16.3718 7.89114L8.99949 16.0001L1.62812 7.89111C0.156794 6.27265 0.216048 3.7839 1.76269 2.23726C3.48961 0.510338 6.33372 0.66814 7.85937 2.5752L9 4.00045L10.1396 2.57504C11.6653 0.667978 14.5104 0.510393 16.2373 2.23731Z" stroke="black" stroke-linecap="round" stroke-linejoin="round"/>
</symbol>

<symbol id="closeBtn" width="24" height="24" viewBox="0 0 24 24" fill="none" xmlns="http://www.w3.org/2000/svg">
<g id="Close" clip-path="url(#clip0_59_2623)">
<g id="Frame" clip-path="url(#clip1_59_2623)">
<path id="Vector" d="M18 6L6 18"  stroke-linecap="round" stroke-linejoin="round"/>
<path id="Vector_2" d="M6 6L18 18"  stroke-linecap="round" stroke-linejoin="round"/>
</g>
</g>
<defs>
<clipPath id="clip0_59_2623">
<rect width="24" height="24" fill="white"/>
</clipPath>
<clipPath id="clip1_59_2623">
<rect width="24" height="24" fill="white"/>
</clipPath>
</defs>
</symbol>

<symbol  id="google" width="42" height="42" viewBox="0 0 42 42" fill="none" xmlns="http://www.w3.org/2000/svg">
<rect width="42" height="42" rx="21" fill="#DC4E41"/>
<g clip-path="url(#clip0_199_1890)">
<path d="M15.7387 22.9715L15.0808 25.4275L12.6763 25.4784C11.9577 24.1455 11.55 22.6205 11.55 21C11.55 19.433 11.9311 17.9552 12.6067 16.6541H12.6072L14.7479 17.0465L15.6857 19.1744C15.4894 19.7466 15.3824 20.3609 15.3824 21C15.3825 21.6937 15.5082 22.3583 15.7387 22.9715Z" fill="white"/>
<path d="M30.2849 19.2346C30.3934 19.8063 30.45 20.3966 30.45 21C30.45 21.6766 30.3789 22.3365 30.2434 22.9731C29.7833 25.1393 28.5813 27.0309 26.9162 28.3694L26.9156 28.3689L24.2193 28.2313L23.8377 25.8491C24.9426 25.2011 25.8061 24.187 26.2609 22.9731H21.2078V19.2346H26.3346H30.2849Z" fill="white"/>
<path d="M26.9156 28.3689L26.9162 28.3695C25.2967 29.6712 23.2395 30.45 21.0001 30.45C17.4013 30.45 14.2724 28.4385 12.6763 25.4784L15.7387 22.9716C16.5367 25.1014 18.5913 26.6176 21.0001 26.6176C22.0354 26.6176 23.0053 26.3377 23.8376 25.8491L26.9156 28.3689Z" fill="white"/>
<path d="M27.032 13.7256L23.9706 16.2319C23.1092 15.6935 22.0909 15.3825 21.0001 15.3825C18.5368 15.3825 16.4438 16.9682 15.6857 19.1744L12.6072 16.6541H12.6067C14.1794 13.6218 17.3478 11.55 21.0001 11.55C23.293 11.55 25.3953 12.3668 27.032 13.7256Z" fill="white"/>
</g>
<defs>
<clipPath id="clip0_199_1890">
<rect width="18.9" height="18.9" fill="white" transform="translate(11.55 11.55)"/>
</clipPath>
</defs>
</symbol>

<symbol id="facebook" viewBox="0 0 42 42" fill="none" xmlns="http://www.w3.org/2000/svg">
<rect width="42" height="42" rx="21" fill="#4267B2"/>
<path d="M22.9339 30.45V21.8288H25.72L26.1371 18.4689H22.9339V16.3238C22.9339 15.3511 23.194 14.6881 24.5371 14.6881L26.25 14.6873V11.6823C25.9537 11.6415 24.9369 11.55 23.754 11.55C21.2842 11.55 19.5934 13.1157 19.5934 15.9912V18.469H16.8V21.8288H19.5933V30.45L22.9339 30.45Z" fill="white"/>
</symbol>

<symbol  id="mail-ru" width="42" height="42" viewBox="0 0 42 42" fill="none" xmlns="http://www.w3.org/2000/svg">
<rect width="42" height="42" rx="21" fill="#005FF9"/>
<path d="M23.8425 21C23.8425 22.5674 22.5674 23.8425 21 23.8425C19.4327 23.8425 18.1576 22.5674 18.1576 21C18.1576 19.4327 19.4327 18.1576 21 18.1576C22.5674 18.1576 23.8425 19.4327 23.8425 21ZM21 11.55C15.789 11.55 11.55 15.789 11.55 21C11.55 26.211 15.789 30.45 21 30.45C22.9089 30.45 24.7497 29.8817 26.3231 28.8064L26.3501 28.7875L25.0771 27.3079L25.0554 27.3214C23.8445 28.101 22.4418 28.5128 21 28.5128C16.8576 28.5128 13.4873 25.1425 13.4873 21C13.4873 16.8576 16.8576 13.4873 21 13.4873C25.1425 13.4873 28.5128 16.8576 28.5128 21C28.5128 21.5367 28.4527 22.08 28.336 22.6146C28.0984 23.59 27.4152 23.8884 26.9029 23.8492C26.3872 23.8074 25.7838 23.4402 25.7797 22.5411V21.8559V21C25.7797 18.3642 23.6359 16.2204 21 16.2204C18.3642 16.2204 16.2204 18.3642 16.2204 21C16.2204 23.6359 18.3642 25.7797 21 25.7797C22.2805 25.7797 23.4813 25.2795 24.3865 24.369C24.913 25.1884 25.771 25.7021 26.7477 25.7804C26.8314 25.7871 26.9171 25.7905 27.0015 25.7905C27.6893 25.7905 28.3704 25.5603 28.9198 25.1439C29.4862 24.7132 29.9094 24.0915 30.1429 23.3443C30.18 23.2235 30.2489 22.9474 30.2489 22.9454L30.2509 22.9353C30.3886 22.3359 30.4501 21.7385 30.4501 21C30.4501 15.789 26.2111 11.55 21 11.55Z" fill="white"/>
</symbol>

<symbol id="vk" width="42" height="42" viewBox="0 0 42 42" fill="none" xmlns="http://www.w3.org/2000/svg">
<rect width="42" height="42" rx="21" fill="#5181B8"/>
<path fill-rule="evenodd" clip-rule="evenodd" d="M30.0164 15.482C30.1479 15.0313 30.0164 14.7 29.3911 14.7H27.3234C26.7976 14.7 26.5554 14.9861 26.424 15.3018C26.424 15.3018 25.3724 17.939 23.8828 19.652C23.4009 20.1479 23.1819 20.3055 22.919 20.3055C22.7875 20.3055 22.5973 20.1479 22.5973 19.6972V15.482C22.5973 14.941 22.4448 14.7 22.0066 14.7H18.7574C18.4289 14.7 18.2313 14.951 18.2313 15.189C18.2313 15.7019 18.9759 15.8201 19.0527 17.2627V20.3959C19.0527 21.0828 18.9322 21.2075 18.6693 21.2075C17.9684 21.2075 16.2635 18.5583 15.2521 15.5271C15.0539 14.9379 14.8551 14.7 14.3266 14.7H12.259C11.6682 14.7 11.55 14.9861 11.55 15.3018C11.55 15.8653 12.2511 18.6604 14.814 22.357C16.5228 24.8813 18.9299 26.25 21.1204 26.25C22.4349 26.25 22.5973 25.946 22.5973 25.4225V23.5144C22.5973 22.9065 22.7218 22.7853 23.1379 22.7853C23.4448 22.7853 23.9704 22.943 25.1973 24.1602C26.5991 25.6025 26.8301 26.25 27.6188 26.25H29.6865C30.2772 26.25 30.5726 25.946 30.4022 25.3462C30.2158 24.7483 29.5465 23.8811 28.6582 22.8529C28.1763 22.2667 27.4534 21.6356 27.2345 21.3201C26.9278 20.9143 27.0153 20.7341 27.2345 20.3736C27.2345 20.3736 29.7535 16.722 30.0164 15.4822V15.482Z" fill="white"/>
</symbol>

<symbol id="ok-ru" viewBox="0 0 42 42" fill="none" xmlns="http://www.w3.org/2000/svg">
<rect width="42" height="42" rx="21" fill="#EE8208"/>
<path d="M20.4748 14.4088C21.6498 14.4088 22.6056 15.3147 22.6056 16.4284C22.6056 17.5411 21.6496 18.447 20.4748 18.447C19.3005 18.447 18.3445 17.5411 18.3445 16.4284C18.3442 15.3144 19.3008 14.4088 20.4748 14.4088ZM20.4748 21.3044C23.3131 21.3044 25.6213 19.1174 25.6213 16.4284C25.6213 13.738 23.3134 11.55 20.4748 11.55C17.6367 11.55 15.3283 13.7382 15.3283 16.4284C15.3283 19.1174 17.6367 21.3044 20.4748 21.3044ZM22.5569 25.2831C23.6156 25.0545 24.6259 24.658 25.5452 24.1103C25.8836 23.9085 26.1236 23.5875 26.2123 23.218C26.3011 22.8485 26.2313 22.4607 26.0184 22.14C25.9131 21.981 25.7758 21.8432 25.6143 21.7346C25.4527 21.626 25.2702 21.5486 25.0771 21.5069C24.884 21.4651 24.6841 21.4599 24.4889 21.4915C24.2937 21.523 24.1069 21.5907 23.9393 21.6908C21.8309 22.9471 19.1172 22.9462 17.0105 21.6908C16.843 21.5907 16.6562 21.523 16.461 21.4914C16.2658 21.4598 16.0659 21.4651 15.8728 21.5068C15.6798 21.5485 15.4972 21.6259 15.3358 21.7346C15.1743 21.8432 15.037 21.981 14.9317 22.14C14.7187 22.4606 14.6488 22.8484 14.7374 23.2179C14.8261 23.5874 15.0659 23.9084 15.4042 24.1103C16.3234 24.6578 17.3335 25.0543 18.392 25.2831L15.515 28.0103C15.2323 28.2784 15.0735 28.6419 15.0736 29.021C15.0736 29.4 15.2326 29.7635 15.5154 30.0315C15.7982 30.2994 16.1818 30.4499 16.5817 30.4499C16.9816 30.4498 17.3651 30.2992 17.6478 30.0311L20.4743 27.3517L23.3025 30.0313C23.4424 30.1641 23.6084 30.2694 23.7913 30.3412C23.9741 30.4131 24.17 30.45 24.3679 30.45C24.5659 30.45 24.7618 30.4131 24.9446 30.3412C25.1274 30.2694 25.2935 30.1641 25.4334 30.0313C25.5736 29.8988 25.6849 29.7414 25.7608 29.568C25.8367 29.3946 25.8758 29.2088 25.8758 29.0211C25.8758 28.8334 25.8367 28.6475 25.7608 28.4742C25.6849 28.3008 25.5736 28.1433 25.4334 28.0108L22.5569 25.2831Z" fill="white"/>
</symbol>

<symbol  id="yandex" viewBox="0 0 42 42" fill="none" xmlns="http://www.w3.org/2000/svg">
<rect width="42" height="42" rx="21" fill="#FF0000"/>
<path d="M24.9105 11.55H21.9098C18.9613 11.55 16.4609 13.6919 16.4609 17.8503C16.4609 20.345 17.6718 22.1843 19.83 23.0916L15.8028 30.047C15.671 30.2741 15.8028 30.45 16.0133 30.45H17.8822C18.0401 30.45 18.1458 30.3999 18.1984 30.2741L21.8571 23.4446H23.1733V30.2741C23.1733 30.3492 23.2519 30.45 23.3573 30.45H24.9895C25.1474 30.45 25.2 30.3745 25.2 30.2492V11.802C25.2001 11.6256 25.0949 11.55 24.9105 11.55ZM23.1732 21.8319H22.0677C20.3305 21.8319 18.6461 20.6223 18.6461 17.5983C18.6461 14.4478 20.2253 13.1627 21.8306 13.1627H23.1733V21.8319H23.1732Z" fill="white"/>
</symbol>
</svg>